<svg height="28" version="1.0" width="28" xmlns="http://www.w3.org/2000/svg"><path d=" M 10.5,23.830281057437034 C 6.697275964427407,21.625928120345392 6.216208509412681,17.97497624873258 9.994946909392786,19.99729566797685 C 12.361542397593398,21.263859136172787 16.0,21.29985458533292 16.0,20.056703968649057 C 16.0,18.71403542248494 11.876473048748379,16.0 9.836510750969524,16.0 C 7.512227435628212,16.0 6.789624417328484,14.601044019678053 7.970855287524792,11.511077783921127 C 8.42840086342087,8.156978994344778 12.152477304689818,6.308336368316345 19.813515341457236,5.4415885435824745 C 24.985739051285528,4.856418018646374 26.0,4.990519876490842 26.0,6.259542825750572 C 26.0,7.720843584087082 25.172564817870597,7.991078468194735 16.0,9.525477003364383 C 14.075,9.84749349917011 12.111709530190579,10.496785664233975 11.637132289312397,10.968348481284083 C 10.553495508270371,12.045102208836852 11.692842593726075,14.0 13.40402943226286,14.000000000000002 C 15.586874715270271,14.000000000000005 17.92255680017658,17.417330560927248 18.218203532522168,21.04360597050196 C 18.478396678194315,24.213543687673678 18.27001143414916,24.51876843650569 15.5,24.7448178643524 C 13.85,24.87946768974622 11.6,24.467926126634307 10.5,23.830281057437034 Z" /></svg>